{
    "asset" : {
        "generator" : "Khronos glTF Blender I/O v1.5.17",
        "version" : "2.0"
    },
    "scene" : 0,
    "scenes" : [
        {
            "name" : "Scene",
            "nodes" : [
                5,
                6,
                7,
                8,
                9,
                10,
                11
            ]
        }
    ],
    "nodes" : [
        {
            "name" : "jaw",
            "rotation" : [
                -0.7799357175827026,
                -1.7087184289721336e-07,
                3.077995245348575e-07,
                0.6258595585823059
            ],
            "scale" : [
                1,
                1.0000001192092896,
                1.0000001192092896
            ],
            "translation" : [
                -4.438221168356904e-08,
                0.29480546712875366,
                -0.04354199394583702
            ]
        },
        {
            "children" : [
                0
            ],
            "name" : "head",
            "rotation" : [
                0.2150808870792389,
                -1.023701940994215e-07,
                9.930745115127593e-09,
                0.9765963554382324
            ],
            "scale" : [
                1,
                0.9999999403953552,
                0.9999999403953552
            ],
            "translation" : [
                4.609230748811588e-14,
                0.4419441819190979,
                -4.60821318881699e-08
            ]
        },
        {
            "children" : [
                1
            ],
            "name" : "neck",
            "rotation" : [
                -6.008392716694289e-08,
                0.876338541507721,
                0.48169568181037903,
                6.616171077666877e-08
            ],
            "scale" : [
                1,
                0.9999999403953552,
                0.9999999403953552
            ],
            "translation" : [
                -2.9502877530872447e-15,
                0.684613049030304,
                -6.176195742415466e-22
            ]
        },
        {
            "children" : [
                2
            ],
            "name" : "Bone",
            "rotation" : [
                -0.03534930944442749,
                1.0005351924746719e-07,
                -3.5390315122896254e-09,
                0.99937504529953
            ]
        },
        {
            "mesh" : 0,
            "name" : "Markus",
            "skin" : 0
        },
        {
            "children" : [
                4,
                3
            ],
            "name" : "Armature"
        },
        {
            "name" : "Camera",
            "rotation" : [
                0.7007526159286499,
                -0.14013129472732544,
                0.14343611896038055,
                0.6846423149108887
            ],
            "translation" : [
                -0.8080254197120667,
                1.0606369972229004,
                3.111438035964966
            ]
        },
        {
            "name" : "Lamp.004",
            "rotation" : [
                0.2938370704650879,
                -0.11530905961990356,
                0.15097291767597198,
                0.936787486076355
            ],
            "translation" : [
                -2.164581537246704,
                6.435766696929932,
                2.7413065433502197
            ]
        },
        {
            "name" : "Lamp.003",
            "rotation" : [
                0.16907575726509094,
                0.7558803558349609,
                -0.27217137813568115,
                0.570947527885437
            ],
            "translation" : [
                12.539726257324219,
                0.0949038714170456,
                -4.03661584854126
            ]
        },
        {
            "name" : "Lamp.002",
            "rotation" : [
                0.16907575726509094,
                0.7558803558349609,
                -0.27217137813568115,
                0.570947527885437
            ],
            "translation" : [
                -5.387313365936279,
                3.72101092338562,
                -4.887229919433594
            ]
        },
        {
            "name" : "Lamp",
            "rotation" : [
                0.16907575726509094,
                0.7558803558349609,
                -0.27217137813568115,
                0.570947527885437
            ],
            "translation" : [
                -1.7641682624816895,
                3.598013162612915,
                4.400147438049316
            ]
        },
        {
            "name" : "Lamp.001",
            "rotation" : [
                0.16907575726509094,
                0.7558803558349609,
                -0.27217137813568115,
                0.570947527885437
            ],
            "translation" : [
                1.6759942770004272,
                2.253110408782959,
                1.5239543914794922
            ]
        }
    ],
    "animations" : [
        {
            "channels" : [
                {
                    "sampler" : 0,
                    "target" : {
                        "node" : 3,
                        "path" : "translation"
                    }
                },
                {
                    "sampler" : 1,
                    "target" : {
                        "node" : 3,
                        "path" : "rotation"
                    }
                },
                {
                    "sampler" : 2,
                    "target" : {
                        "node" : 3,
                        "path" : "scale"
                    }
                },
                {
                    "sampler" : 3,
                    "target" : {
                        "node" : 2,
                        "path" : "translation"
                    }
                },
                {
                    "sampler" : 4,
                    "target" : {
                        "node" : 2,
                        "path" : "rotation"
                    }
                },
                {
                    "sampler" : 5,
                    "target" : {
                        "node" : 2,
                        "path" : "scale"
                    }
                },
                {
                    "sampler" : 6,
                    "target" : {
                        "node" : 1,
                        "path" : "translation"
                    }
                },
                {
                    "sampler" : 7,
                    "target" : {
                        "node" : 1,
                        "path" : "rotation"
                    }
                },
                {
                    "sampler" : 8,
                    "target" : {
                        "node" : 1,
                        "path" : "scale"
                    }
                },
                {
                    "sampler" : 9,
                    "target" : {
                        "node" : 0,
                        "path" : "translation"
                    }
                },
                {
                    "sampler" : 10,
                    "target" : {
                        "node" : 0,
                        "path" : "rotation"
                    }
                },
                {
                    "sampler" : 11,
                    "target" : {
                        "node" : 0,
                        "path" : "scale"
                    }
                }
            ],
            "name" : "talk_anim",
            "samplers" : [
                {
                    "input" : 7,
                    "interpolation" : "LINEAR",
                    "output" : 8
                },
                {
                    "input" : 7,
                    "interpolation" : "LINEAR",
                    "output" : 9
                },
                {
                    "input" : 7,
                    "interpolation" : "LINEAR",
                    "output" : 10
                },
                {
                    "input" : 7,
                    "interpolation" : "LINEAR",
                    "output" : 11
                },
                {
                    "input" : 7,
                    "interpolation" : "LINEAR",
                    "output" : 12
                },
                {
                    "input" : 7,
                    "interpolation" : "LINEAR",
                    "output" : 13
                },
                {
                    "input" : 7,
                    "interpolation" : "LINEAR",
                    "output" : 14
                },
                {
                    "input" : 7,
                    "interpolation" : "LINEAR",
                    "output" : 15
                },
                {
                    "input" : 7,
                    "interpolation" : "LINEAR",
                    "output" : 16
                },
                {
                    "input" : 7,
                    "interpolation" : "LINEAR",
                    "output" : 17
                },
                {
                    "input" : 7,
                    "interpolation" : "LINEAR",
                    "output" : 18
                },
                {
                    "input" : 7,
                    "interpolation" : "LINEAR",
                    "output" : 19
                }
            ]
        }
    ],
    "materials" : [
        {
            "doubleSided" : true,
            "name" : "lowres",
            "pbrMetallicRoughness" : {
                "baseColorFactor" : [
                    0.7861447334289551,
                    0.8259242177009583,
                    0.8704837560653687,
                    1
                ],
                "metallicFactor" : 0,
                "roughnessFactor" : 0.5
            }
        }
    ],
    "meshes" : [
        {
            "name" : "Cube.002",
            "primitives" : [
                {
                    "attributes" : {
                        "POSITION" : 0,
                        "NORMAL" : 1,
                        "TEXCOORD_0" : 2,
                        "JOINTS_0" : 3,
                        "WEIGHTS_0" : 4
                    },
                    "indices" : 5,
                    "material" : 0
                }
            ]
        }
    ],
    "skins" : [
        {
            "inverseBindMatrices" : 6,
            "joints" : [
                3,
                2,
                1,
                0
            ],
            "name" : "Armature"
        }
    ],
    "accessors" : [
        {
            "bufferView" : 0,
            "componentType" : 5126,
            "count" : 1150,
            "max" : [
                0.6348076462745667,
                1.9999252557754517,
                1.1238322257995605
            ],
            "min" : [
                -0.6348076462745667,
                0.2280236780643463,
                -0.6224988102912903
            ],
            "type" : "VEC3"
        },
        {
            "bufferView" : 1,
            "componentType" : 5126,
            "count" : 1150,
            "type" : "VEC3"
        },
        {
            "bufferView" : 2,
            "componentType" : 5126,
            "count" : 1150,
            "type" : "VEC2"
        },
        {
            "bufferView" : 3,
            "componentType" : 5121,
            "count" : 1150,
            "type" : "VEC4"
        },
        {
            "bufferView" : 4,
            "componentType" : 5126,
            "count" : 1150,
            "type" : "VEC4"
        },
        {
            "bufferView" : 5,
            "componentType" : 5123,
            "count" : 6618,
            "type" : "SCALAR"
        },
        {
            "bufferView" : 6,
            "componentType" : 5126,
            "count" : 4,
            "type" : "MAT4"
        },
        {
            "bufferView" : 7,
            "componentType" : 5126,
            "count" : 24,
            "max" : [
                0.96
            ],
            "min" : [
                0.04
            ],
            "type" : "SCALAR"
        },
        {
            "bufferView" : 8,
            "componentType" : 5126,
            "count" : 24,
            "type" : "VEC3"
        },
        {
            "bufferView" : 9,
            "componentType" : 5126,
            "count" : 24,
            "type" : "VEC4"
        },
        {
            "bufferView" : 10,
            "componentType" : 5126,
            "count" : 24,
            "type" : "VEC3"
        },
        {
            "bufferView" : 11,
            "componentType" : 5126,
            "count" : 24,
            "type" : "VEC3"
        },
        {
            "bufferView" : 12,
            "componentType" : 5126,
            "count" : 24,
            "type" : "VEC4"
        },
        {
            "bufferView" : 13,
            "componentType" : 5126,
            "count" : 24,
            "type" : "VEC3"
        },
        {
            "bufferView" : 14,
            "componentType" : 5126,
            "count" : 24,
            "type" : "VEC3"
        },
        {
            "bufferView" : 15,
            "componentType" : 5126,
            "count" : 24,
            "type" : "VEC4"
        },
        {
            "bufferView" : 16,
            "componentType" : 5126,
            "count" : 24,
            "type" : "VEC3"
        },
        {
            "bufferView" : 17,
            "componentType" : 5126,
            "count" : 24,
            "type" : "VEC3"
        },
        {
            "bufferView" : 18,
            "componentType" : 5126,
            "count" : 24,
            "type" : "VEC4"
        },
        {
            "bufferView" : 19,
            "componentType" : 5126,
            "count" : 24,
            "type" : "VEC3"
        }
    ],
    "bufferViews" : [
        {
            "buffer" : 0,
            "byteLength" : 13800,
            "byteOffset" : 0
        },
        {
            "buffer" : 0,
            "byteLength" : 13800,
            "byteOffset" : 13800
        },
        {
            "buffer" : 0,
            "byteLength" : 9200,
            "byteOffset" : 27600
        },
        {
            "buffer" : 0,
            "byteLength" : 4600,
            "byteOffset" : 36800
        },
        {
            "buffer" : 0,
            "byteLength" : 18400,
            "byteOffset" : 41400
        },
        {
            "buffer" : 0,
            "byteLength" : 13236,
            "byteOffset" : 59800
        },
        {
            "buffer" : 0,
            "byteLength" : 256,
            "byteOffset" : 73036
        },
        {
            "buffer" : 0,
            "byteLength" : 96,
            "byteOffset" : 73292
        },
        {
            "buffer" : 0,
            "byteLength" : 288,
            "byteOffset" : 73388
        },
        {
            "buffer" : 0,
            "byteLength" : 384,
            "byteOffset" : 73676
        },
        {
            "buffer" : 0,
            "byteLength" : 288,
            "byteOffset" : 74060
        },
        {
            "buffer" : 0,
            "byteLength" : 288,
            "byteOffset" : 74348
        },
        {
            "buffer" : 0,
            "byteLength" : 384,
            "byteOffset" : 74636
        },
        {
            "buffer" : 0,
            "byteLength" : 288,
            "byteOffset" : 75020
        },
        {
            "buffer" : 0,
            "byteLength" : 288,
            "byteOffset" : 75308
        },
        {
            "buffer" : 0,
            "byteLength" : 384,
            "byteOffset" : 75596
        },
        {
            "buffer" : 0,
            "byteLength" : 288,
            "byteOffset" : 75980
        },
        {
            "buffer" : 0,
            "byteLength" : 288,
            "byteOffset" : 76268
        },
        {
            "buffer" : 0,
            "byteLength" : 384,
            "byteOffset" : 76556
        },
        {
            "buffer" : 0,
            "byteLength" : 288,
            "byteOffset" : 76940
        }
    ],
    "buffers" : [
        {
            "byteLength" : 77228,
            "uri" : "data:application/octet-stream;base64,"
        }
    ]
}
